<svg width="44" height="44" viewBox="0 0 44 44" fill="none" xmlns="http://www.w3.org/2000/svg">
<path d="M14.1101 12.8577C13.4184 12.8577 12.8577 13.4184 12.8577 14.1101C12.8577 14.8017 13.4184 15.3624 14.1101 15.3624V12.8577ZM29.8899 15.3624C30.5816 15.3624 31.1423 14.8017 31.1423 14.1101C31.1423 13.4184 30.5816 12.8577 29.8899 12.8577V15.3624ZM28.2201 17.8672H26.9677V20.3719H28.2201V17.8672ZM29.8899 20.3719C30.5816 20.3719 31.1423 19.8112 31.1423 19.1195C31.1423 18.4279 30.5816 17.8672 29.8899 17.8672V20.3719ZM24.463 29.8899C24.463 30.5816 25.0237 31.1423 25.7154 31.1423C26.407 31.1423 26.9677 30.5816 26.9677 29.8899H24.463ZM26.9677 14.1101C26.9677 13.4184 26.407 12.8577 25.7154 12.8577C25.0237 12.8577 24.463 13.4184 24.463 14.1101H26.9677ZM16.9488 29.8899C16.9488 30.5816 17.5095 31.1423 18.2011 31.1423C18.8928 31.1423 19.4535 30.5816 19.4535 29.8899H16.9488ZM19.4535 14.1101C19.4535 13.4184 18.8928 12.8577 18.2011 12.8577C17.5095 12.8577 16.9488 13.4184 16.9488 14.1101H19.4535ZM41.4953 22C41.4953 32.7669 32.7669 41.4953 22 41.4953V44C34.1503 44 44 34.1503 44 22H41.4953ZM22 41.4953C11.2331 41.4953 2.50474 32.7669 2.50474 22H0C0 34.1503 9.84974 44 22 44V41.4953ZM2.50474 22C2.50474 11.2331 11.2331 2.50474 22 2.50474V0C9.84974 0 0 9.84974 0 22H2.50474ZM22 2.50474C32.7669 2.50474 41.4953 11.2331 41.4953 22H44C44 9.84974 34.1503 0 22 0V2.50474ZM14.1101 15.3624H29.8899V12.8577H14.1101V15.3624ZM28.2201 20.3719H29.8899V17.8672H28.2201V20.3719ZM26.9677 29.8899V14.1101H24.463V29.8899H26.9677ZM19.4535 29.8899V14.1101H16.9488V29.8899H19.4535Z" fill="white"/>
</svg>
